<?xml version="1.0" standalone="no"?>
<!DOCTYPE svg PUBLIC "-//W3C//DTD SVG 20010904//EN"
 "http://www.w3.org/TR/2001/REC-SVG-20010904/DTD/svg10.dtd">
<svg version="1.0" xmlns="http://www.w3.org/2000/svg"
 width="293.000000pt" height="103.000000pt" viewBox="0 0 293.000000 103.000000"
 preserveAspectRatio="xMidYMid meet">

<g transform="translate(0.000000,103.000000) scale(0.100000,-0.100000)"
fill="#000000" stroke="none">
<path d="M1180 725 l0 -305 40 0 c35 0 42 4 51 27 6 15 19 36 30 46 10 10 19
31 19 48 0 18 5 29 13 28 6 -1 25 3 40 9 16 7 33 12 38 12 5 0 9 61 9 143 0
98 4 147 12 155 7 7 36 12 65 12 l53 0 0 65 0 65 -185 0 -185 0 0 -305z m80
220 c0 -14 -4 -25 -10 -25 -5 0 -10 11 -10 25 0 14 5 25 10 25 6 0 10 -11 10
-25z m80 6 c0 -11 -4 -23 -10 -26 -6 -4 -10 5 -10 19 0 14 5 26 10 26 6 0 10
-9 10 -19z m70 -8 c0 -20 -3 -24 -11 -16 -7 7 -9 19 -6 27 10 24 17 19 17 -11z
m80 2 c0 -14 -4 -25 -10 -25 -5 0 -10 11 -10 25 0 14 5 25 10 25 6 0 10 -11
10 -25z m-230 -81 c0 -14 -4 -23 -10 -19 -5 3 -10 15 -10 26 0 10 5 19 10 19
6 0 10 -12 10 -26z m80 7 c0 -11 -4 -23 -10 -26 -6 -4 -10 5 -10 19 0 14 5 26
10 26 6 0 10 -9 10 -19z m70 -7 c0 -14 -4 -23 -10 -19 -5 3 -10 15 -10 26 0
10 5 19 10 19 6 0 10 -12 10 -26z m-150 -74 c0 -11 -4 -20 -10 -20 -5 0 -10 9
-10 20 0 11 5 20 10 20 6 0 10 -9 10 -20z m80 1 c0 -11 -4 -23 -10 -26 -6 -4
-10 5 -10 19 0 14 5 26 10 26 6 0 10 -9 10 -19z m70 -7 c0 -14 -4 -23 -10 -19
-5 3 -10 15 -10 26 0 10 5 19 10 19 6 0 10 -12 10 -26z m-150 -74 c0 -11 -4
-20 -10 -20 -5 0 -10 9 -10 20 0 11 5 20 10 20 6 0 10 -9 10 -20z m80 1 c0
-11 -4 -23 -10 -26 -6 -4 -10 5 -10 19 0 14 5 26 10 26 6 0 10 -9 10 -19z m70
-7 c0 -14 -4 -23 -10 -19 -5 3 -10 15 -10 26 0 10 5 19 10 19 6 0 10 -12 10
-26z m-150 -74 c0 -11 -4 -20 -10 -20 -5 0 -10 9 -10 20 0 11 5 20 10 20 6 0
10 -9 10 -20z m80 1 c0 -11 -4 -23 -10 -26 -6 -4 -10 5 -10 19 0 14 5 26 10
26 6 0 10 -9 10 -19z m70 -7 c0 -14 -4 -23 -10 -19 -5 3 -10 15 -10 26 0 10 5
19 10 19 6 0 10 -12 10 -26z m-150 -74 c0 -11 -4 -20 -10 -20 -5 0 -10 9 -10
20 0 11 5 20 10 20 6 0 10 -9 10 -20z m0 -80 c0 -11 -4 -20 -10 -20 -5 0 -10
9 -10 20 0 11 5 20 10 20 6 0 10 -9 10 -20z"/>
<path d="M1447 874 c-4 -4 -7 -70 -7 -147 l0 -139 30 -28 c16 -15 40 -30 52
-33 31 -9 98 22 98 45 0 10 5 18 10 18 6 0 10 -11 10 -24 0 -22 28 -41 53 -37
5 1 11 -8 14 -19 3 -11 9 -20 13 -20 5 0 16 -3 24 -6 15 -6 16 14 14 192 l-3
199 -151 3 c-82 1 -153 -1 -157 -4z m63 -64 c0 -11 -4 -20 -10 -20 -5 0 -10 9
-10 20 0 11 5 20 10 20 6 0 10 -9 10 -20z m62 -12 c-9 -9 -12 -7 -12 12 0 19
3 21 12 12 9 -9 9 -15 0 -24z m68 12 c0 -11 -4 -20 -10 -20 -5 0 -10 9 -10 20
0 11 5 20 10 20 6 0 10 -9 10 -20z m62 -12 c-9 -9 -12 -7 -12 12 0 19 3 21 12
12 9 -9 9 -15 0 -24z m-192 -48 c0 -11 -4 -20 -10 -20 -5 0 -10 9 -10 20 0 11
5 20 10 20 6 0 10 -9 10 -20z m62 -12 c-9 -9 -12 -7 -12 12 0 19 3 21 12 12 9
-9 9 -15 0 -24z m68 12 c0 -11 -4 -20 -10 -20 -5 0 -10 9 -10 20 0 11 5 20 10
20 6 0 10 -9 10 -20z m62 -12 c-9 -9 -12 -7 -12 12 0 19 3 21 12 12 9 -9 9
-15 0 -24z m-192 -48 c0 -11 -4 -20 -10 -20 -5 0 -10 9 -10 20 0 11 5 20 10
20 6 0 10 -9 10 -20z m62 -12 c-9 -9 -12 -7 -12 12 0 19 3 21 12 12 9 -9 9
-15 0 -24z m68 12 c0 -11 -4 -20 -10 -20 -5 0 -10 9 -10 20 0 11 5 20 10 20 6
0 10 -9 10 -20z m62 -12 c-9 -9 -12 -7 -12 12 0 19 3 21 12 12 9 -9 9 -15 0
-24z m-192 -48 c0 -11 -4 -20 -10 -20 -5 0 -10 9 -10 20 0 11 5 20 10 20 6 0
10 -9 10 -20z m62 -12 c-9 -9 -12 -7 -12 12 0 19 3 21 12 12 9 -9 9 -15 0 -24z
m68 12 c0 -11 -4 -20 -10 -20 -5 0 -10 9 -10 20 0 11 5 20 10 20 6 0 10 -9 10
-20z m62 -12 c-9 -9 -12 -7 -12 12 0 19 3 21 12 12 9 -9 9 -15 0 -24z m-192
-48 c0 -11 -4 -20 -10 -20 -5 0 -10 9 -10 20 0 11 5 20 10 20 6 0 10 -9 10
-20z m62 -12 c-9 -9 -12 -7 -12 12 0 19 3 21 12 12 9 -9 9 -15 0 -24z m130 0
c-9 -9 -12 -7 -12 12 0 19 3 21 12 12 9 -9 9 -15 0 -24z"/>
<path d="M1373 558 c-12 -6 -27 -25 -34 -42 -7 -17 -21 -37 -31 -44 -10 -7
-18 -22 -18 -33 0 -18 9 -19 240 -19 132 0 240 4 240 8 0 15 -35 42 -54 42 -9
0 -27 12 -40 27 -27 32 -76 35 -106 8 -16 -14 -23 -16 -32 -7 -7 7 -21 12 -31
12 -10 0 -32 14 -47 30 -29 31 -50 36 -87 18z"/>
<path d="M0 465 c0 -13 67 -15 540 -15 473 0 540 2 540 15 0 13 -67 15 -540
15 -473 0 -540 -2 -540 -15z"/>
<path d="M1850 465 c0 -13 67 -15 540 -15 473 0 540 2 540 15 0 13 -67 15
-540 15 -473 0 -540 -2 -540 -15z"/>
<path d="M0 405 c0 -13 67 -15 540 -15 473 0 540 2 540 15 0 13 -67 15 -540
15 -473 0 -540 -2 -540 -15z"/>
<path d="M1850 405 c0 -13 67 -15 540 -15 473 0 540 2 540 15 0 13 -67 15
-540 15 -473 0 -540 -2 -540 -15z"/>
<path d="M1145 390 c4 -6 122 -10 320 -10 198 0 316 4 320 10 4 7 -105 10
-320 10 -215 0 -324 -3 -320 -10z"/>
<path d="M81 292 c-47 -23 -72 -61 -78 -115 -11 -97 41 -168 129 -174 70 -5
102 12 106 56 3 33 3 33 -20 17 -32 -23 -103 -21 -127 3 -29 29 -37 86 -18
127 19 38 47 49 113 41 43 -4 44 -4 44 23 0 16 -7 30 -16 34 -30 12 -99 6
-133 -12z"/>
<path d="M360 291 c-58 -31 -75 -63 -75 -141 0 -59 3 -72 25 -95 74 -79 188
-71 248 16 33 47 28 145 -8 185 -53 56 -126 70 -190 35z m99 -42 c61 -21 83
-118 36 -164 -18 -19 -35 -25 -65 -25 -56 0 -90 34 -90 90 0 63 15 82 86 110
1 0 15 -5 33 -11z"/>
<path d="M650 165 c0 -80 -1 -148 -2 -152 -2 -5 9 -9 24 -11 l27 -3 3 93 3 93
55 -87 c53 -85 82 -110 101 -91 5 5 8 74 7 154 l-3 144 -25 0 c-24 0 -25 -2
-30 -90 l-5 -90 -58 93 c-41 64 -65 92 -78 92 -18 0 -19 -9 -19 -145z"/>
<path d="M952 158 l3 -153 72 0 c57 0 77 4 100 21 44 32 65 81 60 142 -7 95
-65 142 -175 142 l-63 0 3 -152z m126 87 c32 -9 55 -60 49 -108 -7 -49 -32
-76 -80 -84 l-37 -6 0 100 c0 55 3 103 7 106 4 4 14 5 22 3 9 -2 26 -7 39 -11z"/>
<path d="M1320 291 c-102 -54 -106 -210 -8 -272 42 -26 126 -22 166 8 64 48
85 147 46 214 -38 64 -134 88 -204 50z m138 -68 c29 -32 30 -100 1 -137 -16
-20 -29 -26 -59 -26 -52 0 -68 8 -85 41 -29 56 -11 123 40 145 38 16 74 9 103
-23z"/>
<path d="M1604 297 c-2 -7 -3 -76 -2 -152 l3 -140 28 -3 27 -3 0 90 c0 50 4
91 8 91 4 0 21 -22 37 -50 16 -27 32 -50 35 -50 3 0 19 26 35 58 l30 57 5 -95
c5 -95 5 -95 33 -98 l27 -3 0 155 0 156 -29 0 c-26 0 -34 -8 -66 -66 l-37 -66
-40 66 c-31 53 -44 66 -64 66 -13 0 -27 -6 -30 -13z"/>
<path d="M1960 154 l0 -155 28 3 27 3 3 153 3 152 -31 0 -30 0 0 -156z"/>
<path d="M2117 303 c-4 -3 -7 -73 -7 -155 l0 -149 28 3 c27 3 27 4 32 87 l5
84 58 -86 c40 -61 63 -87 77 -87 19 0 20 7 20 156 l0 155 -27 -3 c-28 -3 -28
-3 -31 -93 l-3 -90 -59 93 c-54 84 -75 103 -93 85z"/>
<path d="M2412 185 c3 -119 4 -126 29 -151 50 -49 148 -42 186 15 15 21 18 47
18 141 l0 115 -30 0 -30 0 -3 -111 c-2 -94 -6 -114 -21 -128 -25 -23 -69 -11
-82 21 -5 13 -9 69 -9 124 l0 99 -31 0 -31 0 4 -125z"/>
<path d="M2760 297 c-33 -16 -52 -55 -45 -91 7 -41 32 -65 74 -71 57 -10 81
-23 81 -45 0 -39 -101 -50 -131 -14 -19 23 -29 16 -29 -20 0 -29 4 -36 31 -45
74 -26 155 -6 177 44 30 65 -2 117 -79 130 -49 8 -69 20 -69 41 0 27 42 37 88
21 l42 -15 0 29 c0 22 -6 32 -26 39 -35 14 -84 12 -114 -3z"/>
</g>
</svg>
