<?xml version="1.0" standalone="no"?>
<!DOCTYPE svg PUBLIC "-//W3C//DTD SVG 20010904//EN"
 "http://www.w3.org/TR/2001/REC-SVG-20010904/DTD/svg10.dtd">
<svg version="1.0" xmlns="http://www.w3.org/2000/svg"
 width="266.000000pt" height="266.000000pt" viewBox="0 0 266.000000 266.000000"
 preserveAspectRatio="xMidYMid meet">

<g transform="translate(0.000000,266.000000) scale(0.100000,-0.100000)"
fill="#000000" stroke="none">
<path d="M200 2641 c-7 -13 -10 -410 -10 -1216 l0 -1195 182 2 183 3 7 54 c14
96 62 171 139 219 47 29 63 80 61 197 -1 50 2 96 7 103 14 23 46 10 49 -21 4
-36 16 -34 71 12 55 46 123 70 211 74 l65 4 5 584 c3 321 9 592 13 601 5 9 21
25 35 35 23 16 57 19 252 23 l225 5 3 245 c2 175 -1 251 -9 268 l-12 22 -733
0 c-715 0 -734 0 -744 -19z m308 -320 c-3 -74 -4 -76 -28 -76 -24 0 -25 2 -28
75 -2 61 0 77 14 87 33 24 45 -2 42 -86z m301 85 c7 -9 11 -42 9 -88 -3 -70
-4 -73 -28 -73 -24 0 -25 2 -28 79 -2 57 1 82 10 87 18 12 24 11 37 -5z m317
-20 c3 -12 4 -46 2 -76 -3 -56 -21 -79 -52 -67 -24 9 -23 152 1 165 23 13 42
4 49 -22z m302 -65 c-3 -74 -4 -76 -28 -76 -24 0 -25 2 -28 75 -2 61 0 77 14
87 33 24 45 -2 42 -86z m-920 -320 c-3 -65 -6 -76 -22 -79 -27 -6 -36 15 -36
90 0 53 4 69 17 77 33 18 44 -6 41 -88z m300 87 c14 -14 16 -136 3 -156 -5 -8
-17 -12 -27 -10 -16 3 -19 14 -22 82 -2 57 1 82 10 87 17 12 22 11 36 -3z
m306 -4 c19 -18 22 -114 6 -145 -13 -23 -46 -25 -54 -3 -3 9 -6 44 -6 79 0 50
4 66 18 74 9 6 18 11 19 11 1 0 9 -7 17 -16z m-610 -320 c11 -27 6 -140 -6
-152 -7 -7 -17 -8 -30 -1 -15 8 -18 22 -18 74 0 76 6 95 30 95 10 0 21 -7 24
-16z m310 0 c3 -9 6 -44 6 -79 0 -66 -14 -91 -44 -79 -13 5 -16 21 -16 83 0
43 3 81 7 84 12 13 41 7 47 -9z m306 -3 c5 -11 10 -44 10 -75 0 -64 -19 -93
-51 -76 -16 9 -19 22 -19 75 0 35 3 70 6 79 8 22 41 20 54 -3z m-612 -379 c3
-83 -8 -108 -39 -91 -16 8 -19 21 -19 83 0 79 4 88 35 84 18 -3 20 -11 23 -76z
m310 -3 c3 -80 -9 -106 -42 -93 -13 5 -16 21 -16 83 0 84 4 93 35 89 18 -3 20
-11 23 -79z m300 69 c7 -7 12 -39 12 -74 0 -72 -18 -101 -51 -84 -16 9 -19 22
-19 84 0 40 3 76 7 79 10 11 38 8 51 -5z m-613 -398 c0 -84 0 -85 -25 -85 -24
0 -25 3 -28 74 -4 89 1 103 30 99 22 -3 23 -7 23 -88z m303 78 c18 -18 16
-142 -3 -158 -32 -27 -45 -5 -45 78 0 43 3 82 7 85 10 11 28 8 41 -5z m312 -7
c15 -29 12 -124 -4 -147 -12 -15 -18 -17 -33 -8 -14 9 -19 26 -21 78 -3 68 7
96 34 96 7 0 18 -9 24 -19z m-612 -382 c2 -59 -1 -79 -13 -89 -29 -24 -45 5
-45 85 0 78 4 87 35 83 18 -3 20 -11 23 -79z m-3 -324 c0 -79 0 -80 -25 -80
-24 0 -25 3 -28 69 -4 84 1 98 30 94 22 -3 23 -8 23 -83z"/>
<path d="M1242 2038 c-9 -9 -12 -156 -12 -598 l0 -586 35 -13 c44 -16 148
-111 164 -150 11 -26 18 -29 74 -35 37 -4 85 -17 119 -35 61 -30 65 -30 90 10
9 15 30 29 46 32 16 3 36 13 44 21 23 22 130 40 201 32 60 -6 130 -35 189 -79
l29 -22 18 23 c19 26 47 22 56 -10 4 -10 5 -43 3 -71 l-3 -52 60 -6 c33 -4 79
-16 102 -28 23 -12 47 -21 53 -21 7 0 10 246 10 790 0 770 0 790 -19 800 -30
15 -1243 14 -1259 -2z m263 -253 c0 -60 -3 -70 -19 -73 -26 -5 -36 15 -36 74
0 52 14 77 40 72 12 -3 15 -19 15 -73z m260 0 c0 -60 -3 -70 -19 -73 -26 -5
-36 15 -36 74 0 52 14 77 40 72 12 -3 15 -19 15 -73z m260 0 c0 -60 -3 -70
-19 -73 -25 -5 -36 14 -36 70 0 62 8 80 34 76 19 -3 21 -9 21 -73z m265 56 c5
-11 10 -36 10 -56 0 -46 -15 -75 -39 -75 -23 0 -31 19 -31 71 0 47 14 79 35
79 8 0 19 -9 25 -19z m-782 -298 c-3 -65 -4 -68 -28 -68 -23 0 -25 4 -28 54
-4 68 1 81 33 81 26 0 26 -1 23 -67z m260 0 c-3 -65 -4 -68 -28 -68 -23 0 -25
4 -28 54 -4 68 1 81 33 81 26 0 26 -1 23 -67z m257 -3 c0 -63 -1 -65 -25 -65
-23 0 -25 4 -28 54 -4 68 2 83 30 79 21 -3 23 -8 23 -68z m269 54 c10 -27 7
-99 -6 -112 -17 -17 -45 -15 -52 4 -3 9 -6 33 -6 54 0 53 8 70 35 70 13 0 26
-7 29 -16z m-789 -289 c0 -60 -3 -70 -19 -73 -25 -5 -36 14 -36 70 0 62 8 80
34 76 19 -3 21 -9 21 -73z m260 0 c0 -68 -1 -70 -25 -70 -23 0 -25 4 -28 49
-5 72 4 98 31 94 20 -3 22 -8 22 -73z m260 0 c0 -68 -1 -70 -25 -70 -23 0 -25
4 -28 49 -5 72 4 98 31 94 20 -3 22 -8 22 -73z m265 56 c14 -27 13 -104 -2
-119 -17 -17 -45 -15 -52 4 -10 27 -6 110 6 122 18 18 36 15 48 -7z m-782
-297 c2 -44 -1 -64 -12 -73 -25 -21 -46 13 -46 73 0 59 5 68 35 64 17 -3 20
-11 23 -64z m260 3 c3 -67 -9 -92 -39 -76 -15 8 -19 21 -19 68 0 64 5 73 35
69 17 -3 20 -11 23 -61z m260 0 c3 -67 -9 -92 -39 -76 -15 8 -19 21 -19 68 0
64 5 73 35 69 17 -3 20 -11 23 -61z m266 47 c10 -27 7 -99 -6 -112 -17 -17
-45 -15 -52 4 -3 9 -6 33 -6 54 0 53 8 70 35 70 13 0 26 -7 29 -16z m-789
-289 c0 -60 -3 -70 -19 -73 -26 -5 -36 15 -36 74 0 52 14 77 40 72 12 -3 15
-19 15 -73z m253 66 c9 -5 12 -27 10 -72 -3 -61 -4 -64 -28 -64 -23 0 -25 4
-28 58 -4 72 13 100 46 78z m261 -5 c7 -9 11 -38 9 -73 -3 -54 -5 -58 -28 -58
-23 0 -25 4 -28 58 -3 54 8 87 28 87 4 0 13 -6 19 -14z m265 -2 c19 -19 22
-104 4 -122 -17 -17 -45 -15 -52 4 -10 25 -7 93 4 115 13 23 24 24 44 3z"/>
<path d="M1035 809 c-75 -19 -163 -91 -204 -168 -7 -13 -16 -53 -19 -90 -6
-60 -9 -66 -31 -69 -14 -2 -50 -30 -82 -63 -58 -58 -79 -102 -79 -161 l0 -28
985 0 c742 0 985 3 985 12 0 24 -62 106 -102 135 -51 37 -105 53 -175 53 l-51
0 -23 47 c-70 144 -240 211 -389 154 -58 -22 -129 -79 -150 -120 l-13 -25 -18
26 c-11 14 -43 39 -72 54 -42 23 -65 28 -124 28 l-71 1 -11 36 c-14 46 -94
129 -152 157 -53 25 -147 35 -204 21z"/>
<path d="M49 139 c-8 -16 -8 -27 2 -45 l12 -24 1277 0 1277 0 12 24 c10 18 10
29 2 45 l-12 21 -1279 0 -1279 0 -12 -21z"/>
</g>
</svg>
